<?xml version="1.0" encoding="UTF-8"?>
<svg id="Layer_2" data-name="Layer 2" xmlns="http://www.w3.org/2000/svg" viewBox="0 0 314.21 255.23">
  <defs>
    <style>
      .cls-1 {
        fill: #010101;
      }
    </style>
  </defs>
  <g id="Layer_1-2" data-name="Layer 1">
    <g id="Support_Icon_Role">
      <path class="cls-1" d="M116.88,84.13l-19.82-19.82S30.9,67.52,0,47.12c0,0,10.49,38.18,33.23,52.47h50.43s-4.37,17.2-22.74,27.4l39.64,31.77s18.07-30.02,16.32-74.62Z"/>
      <polygon class="cls-1" points="206.51 22.63 189.46 0 157.11 0 124.75 0 107.7 22.63 157.11 72.1 206.51 22.63"/>
      <path class="cls-1" d="M171.54,88c-4.33,6.11-12.57,8.48-14.16,8.9-.2,.05-.34,.05-.54,0-1.59-.41-9.83-2.79-14.16-8.9,0,0,3.06,104.28-27.25,148.29,0,0,7,14.57,11.95,18.95h59.46c4.96-4.37,11.95-18.95,11.95-18.95-30.31-44.01-27.25-148.29-27.25-148.29Z"/>
      <path class="cls-1" d="M217.15,64.31l-19.82,19.82c-1.75,44.6,16.32,74.62,16.32,74.62l39.64-31.77c-18.36-10.2-22.74-27.4-22.74-27.4h50.43c22.74-14.28,33.23-52.47,33.23-52.47-30.9,20.4-97.06,17.2-97.06,17.2Z"/>
    </g>
  </g>
</svg>